<svg width="40" height="40" viewBox="0 0 40 40" fill="none" xmlns="http://www.w3.org/2000/svg">
  <defs>
    <!-- Gradient for the hexagon outline and bars -->
    <linearGradient id="logoGradient" x1="0%" y1="0%" x2="100%" y2="100%">
      <stop offset="0%" stop-color="#ffb86b"/>
      <stop offset="50%" stop-color="#ffd89b"/>
      <stop offset="100%" stop-color="#5eead4"/>
    </linearGradient>
    
    <!-- Gradient for the dots -->
    <radialGradient id="dotGradient1" cx="50%" cy="50%" r="50%">
      <stop offset="0%" stop-color="#5eead4"/>
      <stop offset="100%" stop-color="#00d1ff"/>
    </radialGradient>
    
    <radialGradient id="dotGradient2" cx="50%" cy="50%" r="50%">
      <stop offset="0%" stop-color="#ffb86b"/>
      <stop offset="100%" stop-color="#ffd89b"/>
    </radialGradient>
  </defs>
  
  <!-- Hexagon outline -->
  <path d="M20 2 L32 8 L32 24 L20 30 L8 24 L8 8 Z" 
        stroke="url(#logoGradient)" 
        stroke-width="1.5" 
        fill="none" 
        stroke-linejoin="round"/>
  
  <!-- Vertical bars (audio equalizer style) -->
  <g stroke="url(#logoGradient)" stroke-width="1.2" stroke-linecap="round">
    <!-- Left bars (shorter, blue-teal) -->
    <line x1="12" y1="22" x2="12" y2="18"/>
    <line x1="14" y1="22" x2="14" y2="16"/>
    <line x1="16" y1="22" x2="16" y2="19"/>
    
    <!-- Center bars (medium height) -->
    <line x1="18" y1="22" x2="18" y2="15"/>
    <line x1="20" y1="22" x2="20" y2="12"/>
    <line x1="22" y1="22" x2="22" y2="14"/>
    
    <!-- Right bars (taller, orange-yellow) -->
    <line x1="24" y1="22" x2="24" y2="17"/>
    <line x1="26" y1="22" x2="26" y2="13"/>
    <line x1="28" y1="22" x2="28" y2="16"/>
  </g>
  
  <!-- Bottom-center dot -->
  <circle cx="20" cy="26" r="1.5" fill="url(#dotGradient1)"/>
  
  <!-- Top-right dot -->
  <circle cx="28" cy="12" r="1.2" fill="url(#dotGradient2)"/>
</svg>